<svg width="1038.146" height="104.901" viewBox="0 0 1038.146 104.901" xmlns="http://www.w3.org/2000/svg"><g id="svgGroup" stroke-linecap="round" fill-rule="evenodd" font-size="9pt" stroke="#000" stroke-width="0.25mm" fill="black" style="stroke:#000;stroke-width:0.25mm;fill:black"><path d="M 672.456 44.501 L 672.456 46.301 A 28.466 28.466 0 0 0 675.265 41.053 Q 676.313 38.524 677.071 35.548 A 50.238 50.238 0 0 0 677.406 34.151 Q 679.056 26.801 678.856 16.001 Q 681.656 16.201 684.906 16.601 A 95.426 95.426 0 0 0 687.561 16.887 Q 689.956 17.113 692.956 17.301 A 123.213 123.213 0 0 0 695.506 17.432 Q 699.556 17.601 704.956 17.601 A 202.358 202.358 0 0 0 707.774 17.582 Q 711.538 17.53 714.272 17.33 A 65.139 65.139 0 0 0 714.656 17.301 Q 717.268 17.095 719.432 16.865 A 115.665 115.665 0 0 0 721.306 16.651 Q 724.156 16.301 727.456 16.001 A 19.133 19.133 0 0 1 728.013 17.723 Q 728.443 19.282 728.756 21.251 Q 729.256 24.401 729.306 27.901 Q 729.345 30.672 729.197 33.223 A 63.114 63.114 0 0 1 729.106 34.551 A 31.23 31.23 0 0 1 728.855 36.766 Q 728.593 38.488 728.156 39.801 Q 723.868 41.001 720.647 42.422 A 36.82 36.82 0 0 0 719.606 42.901 A 45.944 45.944 0 0 0 715.557 45.084 A 37.557 37.557 0 0 0 713.256 46.601 Q 715.756 54.201 720.206 58.651 Q 724.656 63.101 729.656 65.701 A 14.384 14.384 0 0 1 730.117 67.355 Q 730.449 68.863 730.606 70.801 A 65.206 65.206 0 0 1 730.801 74.813 Q 730.824 76.057 730.806 77.351 A 47.927 47.927 0 0 1 730.345 83.399 A 43.757 43.757 0 0 1 730.256 84.001 A 37.366 37.366 0 0 1 729.838 86.246 Q 729.456 87.988 728.956 89.301 Q 724.856 88.901 719.856 88.301 Q 716.418 87.888 711.846 87.759 A 156.104 156.104 0 0 0 707.456 87.701 A 389.333 389.333 0 0 0 703.543 87.72 Q 697.956 87.776 694.056 88.001 Q 689.115 88.286 685.844 88.616 A 97.644 97.644 0 0 0 685.506 88.651 Q 682.156 89.001 679.356 89.301 Q 679.656 85.701 679.856 82.651 Q 680.056 79.601 680.056 77.001 Q 680.056 72.801 679.656 69.301 Q 679.256 65.801 677.656 62.701 Q 676.268 60.013 673.377 57.475 A 28.49 28.49 0 0 0 672.456 56.701 L 672.456 65.701 L 676.056 65.701 A 14.254 14.254 0 0 1 676.517 67.363 Q 676.704 68.217 676.835 69.214 A 31.941 31.941 0 0 1 677.006 70.851 A 67.302 67.302 0 0 1 677.201 74.925 Q 677.224 76.188 677.206 77.501 Q 677.156 81.001 676.656 84.151 A 35.321 35.321 0 0 1 676.257 86.266 Q 676.038 87.253 675.78 88.089 A 15.798 15.798 0 0 1 675.356 89.301 Q 671.257 88.91 665.206 88.377 A 2564.726 2564.726 0 0 0 664.906 88.351 Q 658.656 87.801 651.656 87.801 Q 646.856 87.801 641.906 88.051 Q 636.956 88.301 632.656 88.651 Q 628.356 89.001 625.556 89.301 A 16.782 16.782 0 0 1 624.998 87.639 Q 624.756 86.784 624.551 85.787 A 36.996 36.996 0 0 1 624.256 84.151 Q 623.756 81.001 623.706 77.501 Q 623.666 74.73 623.814 72.178 A 63.114 63.114 0 0 1 623.906 70.851 A 30.722 30.722 0 0 1 624.131 68.821 Q 624.278 67.818 624.485 66.968 A 13.515 13.515 0 0 1 624.856 65.701 Q 626.312 65.118 627.673 63.735 A 12.12 12.12 0 0 0 627.756 63.651 Q 629.021 62.34 629.879 59.312 A 24.848 24.848 0 0 0 630.056 58.651 A 22.833 22.833 0 0 0 630.52 56.195 Q 630.956 53.059 630.956 48.401 A 72.594 72.594 0 0 0 630.873 44.796 Q 630.71 41.541 630.23 39.346 A 15.351 15.351 0 0 0 629.906 38.101 A 20.49 20.49 0 0 0 629.283 36.35 Q 628.448 34.321 627.406 33.351 A 16.691 16.691 0 0 0 626.533 32.59 Q 625.644 31.871 624.909 31.526 A 4.736 4.736 0 0 0 624.856 31.501 Q 623.974 29.836 623.572 26.782 A 29.308 29.308 0 0 1 623.556 26.651 A 44.461 44.461 0 0 1 623.25 22.981 Q 623.2 21.829 623.2 20.616 A 60.349 60.349 0 0 1 623.206 19.801 A 54.909 54.909 0 0 1 623.584 13.986 A 49.251 49.251 0 0 1 623.756 12.701 A 29.287 29.287 0 0 1 624.201 10.32 Q 624.469 9.167 624.814 8.198 A 13.963 13.963 0 0 1 625.256 7.101 Q 628.121 7.298 632.353 7.691 A 530.509 530.509 0 0 1 632.456 7.701 Q 636.756 8.101 641.806 8.351 Q 646.856 8.601 651.656 8.601 Q 658.756 8.601 664.606 8.151 A 762.542 762.542 0 0 0 668.761 7.82 Q 670.396 7.686 671.869 7.556 A 398.339 398.339 0 0 0 674.656 7.301 A 38.243 38.243 0 0 1 675.585 10.703 A 31.443 31.443 0 0 1 675.956 12.651 Q 676.356 15.201 676.356 17.801 Q 676.356 20.98 675.654 24.973 A 63.101 63.101 0 0 1 675.406 26.301 Q 674.456 31.101 673.456 35.901 A 52.81 52.81 0 0 0 672.772 39.909 Q 672.515 41.903 672.467 43.688 A 30.108 30.108 0 0 0 672.456 44.501 Z M 968.856 49.101 L 990.056 48.901 L 990.056 43.601 L 984.556 43.601 L 984.556 46.301 Q 974.356 46.701 964.456 47.101 A 178 178 0 0 1 957.269 47.246 A 175.576 175.576 0 0 1 944.756 46.801 A 88.22 88.22 0 0 1 943.619 32.826 A 80.401 80.401 0 0 1 945.256 16.601 A 212.083 212.083 0 0 1 947.606 16.615 Q 949.712 16.638 952.306 16.701 Q 956.456 16.801 961.106 16.951 Q 965.756 17.101 970.256 17.201 Q 974.123 17.287 977.251 17.373 A 910.891 910.891 0 0 1 978.256 17.401 A 17.853 17.853 0 0 0 976.996 21.62 A 15.934 15.934 0 0 0 976.806 23.401 A 15.602 15.602 0 0 0 976.786 24.18 A 14.819 14.819 0 0 0 977.656 29.201 A 19.29 19.29 0 0 1 978.42 24.722 A 11.495 11.495 0 0 1 983.956 17.701 Q 989.756 14.501 1000.356 14.501 A 76.792 76.792 0 0 1 1007.926 14.849 Q 1015.797 15.631 1020.821 18.171 A 21.661 21.661 0 0 1 1021.356 18.451 A 19.857 19.857 0 0 1 1028.399 24.645 A 20.142 20.142 0 0 1 1031.056 30.201 Q 1032.122 33.49 1032.122 37.213 A 26.582 26.582 0 0 1 1032.106 38.151 A 92.969 92.969 0 0 1 1031.459 46.37 A 88.481 88.481 0 0 1 1031.456 46.401 Q 1030.989 50.135 1030.958 53.172 A 41.991 41.991 0 0 0 1030.956 53.601 Q 1030.956 59.701 1032.906 62.251 A 13.408 13.408 0 0 0 1034.276 63.797 Q 1035.108 64.594 1035.982 65.098 A 6.799 6.799 0 0 0 1037.056 65.601 A 19.842 19.842 0 0 1 1037.625 67.987 Q 1038.012 70.151 1038.106 72.901 A 70.436 70.436 0 0 1 1038.146 75.301 A 70.655 70.655 0 0 1 1037.856 81.701 A 46.656 46.656 0 0 1 1037.401 85.26 Q 1037.12 86.922 1036.729 88.364 A 25.69 25.69 0 0 1 1036.456 89.301 A 61.158 61.158 0 0 1 1028.152 90.579 A 67.695 67.695 0 0 1 1027.256 90.651 Q 1022.962 90.964 1020.108 90.997 A 56.458 56.458 0 0 1 1019.456 91.001 A 52.062 52.062 0 0 1 1015.028 90.825 Q 1010.662 90.451 1007.754 89.282 A 15.067 15.067 0 0 1 1007.556 89.201 Q 1003.88 87.662 1003.346 83.932 A 9.395 9.395 0 0 1 1003.256 82.601 Q 1003.256 80.901 1003.906 79.001 Q 1004.556 77.101 1005.456 74.901 L 1002.856 73.601 A 34.478 34.478 0 0 1 998.672 80.995 A 38.896 38.896 0 0 1 997.906 82.001 Q 994.756 86.001 989.206 88.501 A 25.137 25.137 0 0 1 984.197 90.108 Q 980.075 91.001 974.756 91.001 A 75.919 75.919 0 0 1 967.749 90.698 Q 964.278 90.375 961.368 89.709 A 30.201 30.201 0 0 1 955.806 87.901 Q 950.024 85.322 946.976 81.428 A 15.961 15.961 0 0 1 945.856 79.801 Q 942.856 74.801 942.856 69.001 A 20.288 20.288 0 0 1 944.042 61.932 A 17.813 17.813 0 0 1 949.056 54.701 A 18.767 18.767 0 0 1 955.011 51.235 Q 960.555 49.162 968.856 49.101 Z M 227.456 66.501 L 229.356 64.201 Q 226.456 62.101 223.306 60.751 A 69.746 69.746 0 0 0 217.525 58.58 A 77.359 77.359 0 0 0 216.656 58.301 A 36.356 36.356 0 0 1 209.329 54.889 A 33.361 33.361 0 0 1 208.106 54.101 Q 204.256 51.501 202.056 47.501 A 16.994 16.994 0 0 1 200.339 42.743 Q 199.916 40.71 199.863 38.374 A 29.761 29.761 0 0 1 199.856 37.701 Q 199.856 31.501 202.706 26.301 Q 205.556 21.101 211.756 17.951 A 26.31 26.31 0 0 1 217.748 15.825 Q 220.648 15.153 224.051 14.922 A 54.71 54.71 0 0 1 227.756 14.801 A 77.564 77.564 0 0 1 234.952 15.112 Q 242.024 15.773 246.641 17.84 A 21.599 21.599 0 0 1 247.306 18.151 Q 254.156 21.501 254.356 30.101 Q 255.656 26.601 255.306 23.551 A 26.627 26.627 0 0 0 254.643 20.009 A 33.975 33.975 0 0 0 253.756 17.101 Q 258.637 17.032 262.596 16.94 A 590.314 590.314 0 0 0 266.006 16.851 Q 271.156 16.701 275.356 16.551 Q 279.556 16.401 283.456 16.401 A 68.251 68.251 0 0 1 284.698 25.08 A 83.439 83.439 0 0 1 284.956 30.701 A 98.986 98.986 0 0 1 284.964 31.986 A 105.747 105.747 0 0 1 283.956 46.401 A 66.894 66.894 0 0 1 278.804 46.143 Q 274.781 45.776 271.656 44.901 A 37.645 37.645 0 0 1 262.544 40.957 A 42.155 42.155 0 0 1 261.956 40.601 L 260.256 43.001 A 45.451 45.451 0 0 0 262.366 44.276 Q 263.674 45.016 264.856 45.551 A 145.122 145.122 0 0 0 266.796 46.412 Q 267.718 46.813 268.546 47.155 A 86.874 86.874 0 0 0 268.656 47.201 A 63.6 63.6 0 0 1 272.921 49.125 Q 275.085 50.204 276.878 51.342 A 32.78 32.78 0 0 1 278.656 52.551 A 18.721 18.721 0 0 1 282.903 56.794 A 17.022 17.022 0 0 1 284.456 59.451 Q 286.356 63.501 286.356 69.501 A 33.28 33.28 0 0 1 286.062 74.067 Q 285.482 78.245 283.756 81.101 A 17.255 17.255 0 0 1 280.177 85.367 A 15.428 15.428 0 0 1 277.006 87.451 Q 272.856 89.501 268.106 90.151 A 70.347 70.347 0 0 1 261.787 90.737 A 59.781 59.781 0 0 1 259.056 90.801 A 82.446 82.446 0 0 1 251.989 90.519 Q 244.252 89.851 239.506 87.601 Q 232.756 84.401 232.556 76.301 Q 231.356 79.701 231.806 82.651 Q 232.256 85.601 233.256 88.501 Q 223.356 88.801 215.256 89.101 Q 208.168 89.363 203.224 89.32 A 136.772 136.772 0 0 1 201.856 89.301 Q 200.556 81.901 200.406 74.601 A 79.445 79.445 0 0 1 200.389 72.969 Q 200.389 66.401 201.456 59.201 Q 208.756 59.201 215.506 60.951 A 36.066 36.066 0 0 1 224.408 64.525 A 32.551 32.551 0 0 1 227.456 66.501 Z M 49.356 56.201 L 49.356 65.401 L 52.956 65.501 Q 53.856 68.901 54.006 73.351 Q 54.156 77.801 53.706 82.051 A 44.588 44.588 0 0 1 53.291 85.048 Q 53.034 86.511 52.694 87.767 A 22.211 22.211 0 0 1 52.256 89.201 Q 48.056 88.801 41.256 88.201 A 132.44 132.44 0 0 0 33.625 87.759 Q 31.233 87.687 28.717 87.687 A 180.928 180.928 0 0 0 26.456 87.701 Q 19.456 87.801 13.056 88.351 Q 6.656 88.901 2.556 89.301 Q 1.869 87.698 1.415 85.455 A 33.126 33.126 0 0 1 1.156 84.001 A 52.372 52.372 0 0 1 0.587 78.209 A 57.782 57.782 0 0 1 0.556 77.351 Q 0.456 73.901 0.806 70.701 A 36.738 36.738 0 0 1 1.114 68.477 Q 1.293 67.435 1.521 66.546 A 16.898 16.898 0 0 1 1.856 65.401 Q 3.262 64.838 4.624 63.529 A 12.878 12.878 0 0 0 4.806 63.351 Q 6.194 61.962 7.17 58.923 A 23.394 23.394 0 0 0 7.256 58.651 A 17.995 17.995 0 0 0 7.783 56.361 Q 8.256 53.557 8.256 49.501 A 57.442 57.442 0 0 0 8.165 46.15 Q 7.932 42.187 7.106 39.851 Q 5.956 36.601 4.406 35.451 Q 2.895 34.33 1.716 34.302 A 2.532 2.532 0 0 0 1.656 34.301 A 10.132 10.132 0 0 1 1.073 32.839 Q 0.828 32.068 0.641 31.145 A 24.623 24.623 0 0 1 0.356 29.401 Q 0 26.645 0 23.534 A 55.623 55.623 0 0 1 0.006 22.751 Q 0.056 19.201 0.556 15.851 Q 1 12.871 1.84 10.643 A 17.083 17.083 0 0 1 2.056 10.101 A 222.062 222.062 0 0 0 7.402 10.255 Q 11.687 10.326 15.406 10.201 Q 21.356 10.001 27.306 9.601 Q 33.256 9.201 40.306 8.851 A 254.25 254.25 0 0 1 45.952 8.638 Q 48.454 8.569 51.205 8.535 A 463.554 463.554 0 0 1 56.956 8.501 Q 68.026 8.501 76.539 10.011 A 69.407 69.407 0 0 1 81.006 10.951 A 36.26 36.26 0 0 1 88.038 13.422 Q 93.016 15.811 96.256 19.601 Q 101.457 25.686 101.457 36.78 A 47.939 47.939 0 0 1 101.456 37.201 A 31.342 31.342 0 0 1 100.933 43.039 A 25.061 25.061 0 0 1 99.606 47.651 A 21.147 21.147 0 0 1 95.105 54.678 A 20.435 20.435 0 0 1 94.256 55.501 A 26.978 26.978 0 0 0 96.12 58.695 Q 97.234 60.319 98.493 61.555 A 16.134 16.134 0 0 0 98.856 61.901 A 27.87 27.87 0 0 0 100.763 63.518 Q 101.735 64.265 102.661 64.814 A 13.99 13.99 0 0 0 103.756 65.401 A 15.852 15.852 0 0 1 104.217 67.13 Q 104.414 68.063 104.55 69.147 A 33.92 33.92 0 0 1 104.706 70.701 A 70.323 70.323 0 0 1 104.913 75.853 Q 104.914 76.03 104.914 76.208 A 78.882 78.882 0 0 1 104.906 77.351 A 47.927 47.927 0 0 1 104.445 83.399 A 43.757 43.757 0 0 1 104.356 84.001 A 37.366 37.366 0 0 1 103.938 86.246 Q 103.556 87.988 103.056 89.301 A 473.969 473.969 0 0 0 100.795 88.998 Q 99.603 88.842 98.282 88.673 A 769.939 769.939 0 0 0 98.106 88.651 Q 96.215 88.41 93.828 88.193 A 192.322 192.322 0 0 0 91.556 88.001 A 84.63 84.63 0 0 0 88.452 87.818 Q 87.054 87.759 85.48 87.73 A 179.023 179.023 0 0 0 82.156 87.701 A 327.316 327.316 0 0 0 78.571 87.72 Q 73.443 87.776 69.806 88.001 Q 65.073 88.294 61.864 88.634 A 98.424 98.424 0 0 0 61.706 88.651 Q 58.56 88.99 56.024 89.281 A 559.5 559.5 0 0 0 55.856 89.301 A 132.958 132.958 0 0 0 56.497 83.747 Q 56.908 79.334 56.908 75.635 A 65.176 65.176 0 0 0 56.906 75.101 Q 56.857 69.209 55.27 64.717 A 23.469 23.469 0 0 0 55.156 64.401 A 19.432 19.432 0 0 0 51.034 57.824 A 23.879 23.879 0 0 0 49.356 56.201 Z M 425.056 79.401 L 422.856 81.401 Q 425.756 84.601 429.156 87.201 A 31.3 31.3 0 0 0 435.534 90.948 A 35.707 35.707 0 0 0 436.856 91.501 Q 437.043 98.623 436.001 102.408 A 13.812 13.812 0 0 1 435.856 102.901 Q 428.956 102.101 423.306 101.751 Q 417.656 101.401 412.156 101.401 Q 407.556 101.401 402.556 101.551 Q 397.556 101.701 392.956 102.001 Q 389.002 102.259 385.862 102.59 A 117.991 117.991 0 0 0 384.856 102.701 A 19.12 19.12 0 0 1 384.111 100.191 Q 383.619 98.043 383.406 95.301 A 62.659 62.659 0 0 1 383.217 90.44 A 63.66 63.66 0 0 1 383.356 86.251 Q 383.656 81.701 384.656 78.401 A 6.684 6.684 0 0 0 385.55 77.853 Q 386.377 77.262 387.306 76.301 A 6.895 6.895 0 0 0 388.214 75.101 Q 389.1 73.652 389.806 71.301 Q 390.754 68.139 390.846 62.693 A 70.831 70.831 0 0 0 390.856 61.501 A 120.844 120.844 0 0 0 390.797 57.62 Q 390.669 53.651 390.262 50.846 A 35.919 35.919 0 0 0 390.256 50.801 Q 389.656 46.701 388.706 44.501 Q 387.911 42.66 387.116 41.799 A 3.447 3.447 0 0 0 386.806 41.501 A 6.585 6.585 0 0 0 386.291 41.106 Q 385.753 40.737 385.308 40.63 A 1.649 1.649 0 0 0 385.156 40.601 A 29.231 29.231 0 0 1 384.405 37.474 Q 384.103 35.851 383.917 34.006 A 52.953 52.953 0 0 1 383.806 32.751 Q 383.456 28.201 383.906 23.701 Q 384.24 20.358 384.988 17.898 A 17.486 17.486 0 0 1 385.556 16.301 Q 388.756 16.701 392.106 17.001 A 235.374 235.374 0 0 0 394.893 17.235 Q 396.593 17.366 398.056 17.451 Q 400.488 17.591 401.17 17.6 A 6.499 6.499 0 0 0 401.256 17.601 Q 407.456 17.601 413.456 17.451 Q 419.157 17.308 422.962 17.121 A 201.544 201.544 0 0 0 423.356 17.101 A 10.253 10.253 0 0 0 422.428 18.275 Q 421.606 19.471 420.806 21.201 Q 419.556 23.901 418.956 26.701 A 17.854 17.854 0 0 0 418.709 28.109 Q 418.513 29.599 418.655 30.785 A 7.044 7.044 0 0 0 418.756 31.401 Q 420.056 27.501 423.306 23.651 A 21.292 21.292 0 0 1 427.593 19.829 Q 429.673 18.406 432.256 17.251 A 26.752 26.752 0 0 1 437.798 15.508 Q 441.718 14.701 446.556 14.701 A 44.778 44.778 0 0 1 455.013 15.46 Q 460.784 16.57 465.356 19.301 Q 473.056 23.901 477.006 32.401 A 40.742 40.742 0 0 1 480.088 42.335 Q 480.901 46.818 480.952 51.918 A 68.483 68.483 0 0 1 480.956 52.601 A 71.109 71.109 0 0 1 480.223 63.137 Q 479.367 68.84 477.511 73.483 A 32.85 32.85 0 0 1 473.456 80.851 Q 465.956 91.001 450.856 91.001 A 46.002 46.002 0 0 1 445.871 90.745 Q 443.302 90.465 441.091 89.877 A 25.449 25.449 0 0 1 439.656 89.451 A 31.116 31.116 0 0 1 434.497 87.24 A 25.789 25.789 0 0 1 431.456 85.301 Q 427.956 82.701 425.056 79.401 Z M 153.256 53.401 L 148.256 53.401 L 148.256 60.801 L 153.156 60.801 L 153.156 56.801 Q 174.356 55.801 197.956 56.801 A 42.717 42.717 0 0 1 197.163 65.242 Q 196.042 70.809 193.332 75.218 A 27.299 27.299 0 0 1 193.156 75.501 A 26.334 26.334 0 0 1 185.071 83.533 A 37.519 37.519 0 0 1 178.056 87.051 A 51.332 51.332 0 0 1 169.502 89.438 Q 165.055 90.305 159.804 90.691 A 122.324 122.324 0 0 1 150.856 91.001 A 96.178 96.178 0 0 1 140.364 90.463 Q 135.115 89.886 130.69 88.688 A 44.137 44.137 0 0 1 124.306 86.451 A 35.919 35.919 0 0 1 116.136 81.516 A 28.447 28.447 0 0 1 109.256 73.401 Q 104.456 64.901 104.456 52.901 A 60.456 60.456 0 0 1 105.064 44.051 Q 105.754 39.398 107.226 35.564 A 29.511 29.511 0 0 1 109.606 30.701 A 27.419 27.419 0 0 1 119.907 21.016 A 37.549 37.549 0 0 1 125.656 18.451 Q 133.575 15.654 144.82 14.889 A 131.887 131.887 0 0 1 153.756 14.601 A 103.852 103.852 0 0 1 165.51 15.234 A 75.909 75.909 0 0 1 176.606 17.301 A 50.502 50.502 0 0 1 183.545 19.684 Q 188.831 21.97 192.456 25.251 A 17.532 17.532 0 0 1 196.895 31.316 A 17.198 17.198 0 0 1 198.256 38.201 A 19.57 19.57 0 0 1 197.508 43.495 A 21.905 21.905 0 0 1 197.406 43.851 A 10.311 10.311 0 0 1 195.414 47.505 A 13.579 13.579 0 0 1 193.956 49.001 A 12.711 12.711 0 0 1 191.64 50.599 Q 189.406 51.826 186.156 52.701 A 33.963 33.963 0 0 1 182.167 53.498 Q 180.066 53.799 177.588 53.95 A 88.119 88.119 0 0 1 172.256 54.101 A 385.805 385.805 0 0 1 166.825 54.064 Q 164.167 54.027 161.806 53.951 Q 157.156 53.801 153.256 53.401 Z M 336.756 53.401 L 331.756 53.401 L 331.756 60.801 L 336.656 60.801 L 336.656 56.801 Q 357.856 55.801 381.456 56.801 A 42.717 42.717 0 0 1 380.663 65.242 Q 379.542 70.809 376.832 75.218 A 27.299 27.299 0 0 1 376.656 75.501 A 26.334 26.334 0 0 1 368.571 83.533 A 37.519 37.519 0 0 1 361.556 87.051 A 51.332 51.332 0 0 1 353.002 89.438 Q 348.555 90.305 343.304 90.691 A 122.324 122.324 0 0 1 334.356 91.001 A 96.178 96.178 0 0 1 323.864 90.463 Q 318.615 89.886 314.19 88.688 A 44.137 44.137 0 0 1 307.806 86.451 A 35.919 35.919 0 0 1 299.636 81.516 A 28.447 28.447 0 0 1 292.756 73.401 Q 287.956 64.901 287.956 52.901 A 60.456 60.456 0 0 1 288.564 44.051 Q 289.254 39.398 290.726 35.564 A 29.511 29.511 0 0 1 293.106 30.701 A 27.419 27.419 0 0 1 303.407 21.016 A 37.549 37.549 0 0 1 309.156 18.451 Q 317.075 15.654 328.32 14.889 A 131.887 131.887 0 0 1 337.256 14.601 A 103.852 103.852 0 0 1 349.01 15.234 A 75.909 75.909 0 0 1 360.106 17.301 A 50.502 50.502 0 0 1 367.045 19.684 Q 372.331 21.97 375.956 25.251 A 17.532 17.532 0 0 1 380.395 31.316 A 17.198 17.198 0 0 1 381.756 38.201 A 19.57 19.57 0 0 1 381.008 43.495 A 21.905 21.905 0 0 1 380.906 43.851 A 10.311 10.311 0 0 1 378.914 47.505 A 13.579 13.579 0 0 1 377.456 49.001 A 12.711 12.711 0 0 1 375.14 50.599 Q 372.906 51.826 369.656 52.701 A 33.963 33.963 0 0 1 365.667 53.498 Q 363.566 53.799 361.088 53.95 A 88.119 88.119 0 0 1 355.756 54.101 A 385.805 385.805 0 0 1 350.325 54.064 Q 347.667 54.027 345.306 53.951 Q 340.656 53.801 336.756 53.401 Z M 842.356 49.801 L 839.456 49.801 A 27.671 27.671 0 0 0 839.451 50.295 Q 839.451 55.565 841.506 59.101 A 16.555 16.555 0 0 0 845.253 63.483 A 21.718 21.718 0 0 0 847.956 65.401 A 15.852 15.852 0 0 1 848.417 67.13 Q 848.614 68.063 848.75 69.147 A 33.92 33.92 0 0 1 848.906 70.701 Q 849.156 73.901 849.056 77.451 A 54.839 54.839 0 0 1 848.729 82.143 A 46.688 46.688 0 0 1 848.456 84.151 A 35.321 35.321 0 0 1 848.057 86.266 Q 847.838 87.253 847.58 88.089 A 15.798 15.798 0 0 1 847.156 89.301 Q 844.02 89.016 839.259 88.686 A 693.828 693.828 0 0 0 838.756 88.651 Q 833.656 88.301 827.956 88.051 Q 822.256 87.801 817.056 87.801 Q 809.556 87.801 803.606 88.301 Q 799.515 88.645 796.299 88.988 A 186.187 186.187 0 0 0 793.556 89.301 A 30.797 30.797 0 0 1 792.786 86.271 Q 792.359 84.176 792.106 81.701 Q 791.656 77.301 791.856 72.901 A 48.102 48.102 0 0 1 792.083 69.872 Q 792.349 67.436 792.856 65.601 Q 794.877 65.073 796.59 63.04 A 12.624 12.624 0 0 0 797.056 62.451 A 7.522 7.522 0 0 0 798.095 60.413 Q 798.956 57.938 798.956 53.901 Q 798.956 48.801 797.906 45.951 A 18.383 18.383 0 0 0 797.26 44.404 Q 796.543 42.898 795.723 42.063 A 4.772 4.772 0 0 0 795.556 41.901 Q 794.398 40.832 793.478 40.636 A 2.037 2.037 0 0 0 793.256 40.601 A 29.231 29.231 0 0 1 792.505 37.474 Q 792.203 35.851 792.017 34.006 A 52.953 52.953 0 0 1 791.906 32.751 Q 791.556 28.201 792.006 23.701 Q 792.34 20.358 793.088 17.898 A 17.486 17.486 0 0 1 793.656 16.301 A 133.757 133.757 0 0 0 798.573 16.831 Q 801.092 17.058 803.882 17.228 A 215.986 215.986 0 0 0 804.256 17.251 Q 810.156 17.601 816.356 17.601 Q 822.556 17.601 828.556 17.451 Q 834.257 17.308 838.062 17.121 A 201.544 201.544 0 0 0 838.456 17.101 Q 837.458 18.198 836.361 20.34 A 26.338 26.338 0 0 0 836.356 20.351 Q 835.256 22.501 834.406 25.001 A 35.467 35.467 0 0 0 833.555 27.881 A 28.544 28.544 0 0 0 833.156 29.751 A 17.49 17.49 0 0 0 833.016 30.667 Q 832.829 32.182 833.034 33.109 A 3.407 3.407 0 0 0 833.056 33.201 A 27.734 27.734 0 0 1 837.277 25.528 A 32.332 32.332 0 0 1 838.356 24.201 A 25.244 25.244 0 0 1 844.322 19.158 A 31.681 31.681 0 0 1 847.706 17.351 Q 853.287 14.778 860.895 14.703 A 46.545 46.545 0 0 1 861.356 14.701 A 29.565 29.565 0 0 1 868.144 15.437 A 20.052 20.052 0 0 1 877.556 20.401 Q 883.556 26.101 883.556 38.301 A 32.738 32.738 0 0 1 882.709 45.967 A 21.991 21.991 0 0 1 876.706 56.801 A 22.918 22.918 0 0 1 865.042 62.847 A 33.459 33.459 0 0 1 858.256 63.501 A 24.352 24.352 0 0 1 853.438 63.052 Q 850.542 62.468 848.28 61.121 A 13.82 13.82 0 0 1 846.606 59.951 Q 842.256 56.401 842.356 49.801 Z M 490.056 46.301 L 483.556 46.301 Q 483.056 43.501 482.856 40.001 Q 482.656 36.501 482.856 32.951 A 63.495 63.495 0 0 1 483.12 29.688 Q 483.298 28.045 483.556 26.601 Q 486.156 24.501 488.606 22.451 A 23.287 23.287 0 0 0 492.716 17.948 A 25.913 25.913 0 0 0 492.956 17.601 A 14.183 14.183 0 0 0 494.473 14.624 Q 495.006 13.21 495.348 11.541 A 25.972 25.972 0 0 0 495.556 10.401 A 64.663 64.663 0 0 0 498.474 10.734 Q 500.107 10.885 501.977 10.991 A 132.632 132.632 0 0 0 504.306 11.101 A 214.815 214.815 0 0 0 510.459 11.248 Q 512.819 11.272 515.306 11.251 Q 521.156 11.201 526.756 10.951 A 258.77 258.77 0 0 0 531.407 10.703 Q 533.529 10.57 535.42 10.41 A 147.085 147.085 0 0 0 536.656 10.301 Q 537.256 12.201 537.656 14.101 A 39.275 39.275 0 0 1 538.199 17.321 A 35.413 35.413 0 0 1 538.256 17.801 L 560.056 17.801 A 12.893 12.893 0 0 1 560.313 18.956 Q 560.612 20.613 560.756 23.201 A 76.255 76.255 0 0 1 560.87 27.429 A 87.546 87.546 0 0 1 560.806 30.751 A 53.696 53.696 0 0 1 560.63 33.552 Q 560.505 34.926 560.312 36.125 A 27.282 27.282 0 0 1 560.056 37.501 L 532.456 37.601 L 532.456 58.501 L 535.356 58.501 L 535.456 41.201 A 19.889 19.889 0 0 1 537.416 40.609 Q 538.391 40.364 539.51 40.169 A 39.601 39.601 0 0 1 540.906 39.951 Q 544.156 39.501 547.756 39.501 A 52.186 52.186 0 0 1 553.408 39.798 A 46.541 46.541 0 0 1 554.656 39.951 A 38.569 38.569 0 0 1 557.172 40.374 Q 558.353 40.616 559.368 40.916 A 19.77 19.77 0 0 1 560.256 41.201 Q 560.556 41.701 561.056 44.551 Q 561.438 46.733 561.733 49.618 A 117.809 117.809 0 0 1 561.906 51.451 Q 562.256 55.501 562.256 59.601 Q 562.256 64.001 561.306 68.501 Q 560.356 73.001 557.956 77.051 Q 555.556 81.101 551.156 84.251 Q 547.23 87.061 541.355 88.797 A 49.671 49.671 0 0 1 539.906 89.201 A 49.487 49.487 0 0 1 533.853 90.366 Q 530.866 90.763 527.473 90.912 A 96.386 96.386 0 0 1 523.256 91.001 Q 508.356 91.001 500.356 87.051 A 21.865 21.865 0 0 1 494.602 83.033 A 18.229 18.229 0 0 1 489.956 75.301 A 22.902 22.902 0 0 1 489.011 70.454 Q 488.903 69.242 488.903 67.965 A 30.568 30.568 0 0 1 488.906 67.601 Q 488.956 63.401 489.456 58.101 Q 489.956 52.801 490.056 46.301 Z M 887.356 16.301 L 893.156 16.801 A 22.946 22.946 0 0 0 893.107 18.278 Q 893.107 20.95 893.764 23.274 A 15.159 15.159 0 0 0 895.656 27.451 Q 898.556 31.901 903.606 33.801 Q 908.511 35.646 914.03 34.661 A 23.671 23.671 0 0 0 914.356 34.601 Q 909.556 34.401 905.506 32.051 Q 901.456 29.701 899.006 25.751 A 16.418 16.418 0 0 1 896.556 17.054 A 19.516 19.516 0 0 1 896.556 16.901 Q 896.556 12.801 898.506 8.951 A 13.708 13.708 0 0 1 901.922 4.694 A 19.172 19.172 0 0 1 905.056 2.551 A 17.988 17.988 0 0 1 909.321 0.9 Q 911.401 0.366 913.879 0.149 A 41.079 41.079 0 0 1 917.456 0.001 Q 925.234 0.001 930.399 2.421 A 16.798 16.798 0 0 1 935.706 6.251 Q 941.456 12.501 941.456 24.701 A 60.462 60.462 0 0 1 941.35 28.359 Q 941.24 30.17 941.015 31.772 A 35.185 35.185 0 0 1 940.906 32.501 Q 940.356 35.901 939.556 39.151 A 64.858 64.858 0 0 0 938.735 43.013 A 82.744 82.744 0 0 0 938.206 46.301 Q 937.784 49.287 937.686 53.211 A 99.124 99.124 0 0 0 937.656 55.701 Q 937.656 62.601 938.456 68.751 Q 939.256 74.901 939.656 80.101 Q 939.94 83.802 939.364 86.996 A 21.188 21.188 0 0 1 938.756 89.501 A 17.974 17.974 0 0 1 928.902 100.752 A 23.854 23.854 0 0 1 926.856 101.601 A 43.897 43.897 0 0 1 920.426 103.341 Q 912.537 104.901 901.056 104.901 Q 897.856 104.901 894.256 104.801 A 95.707 95.707 0 0 1 887.33 104.35 A 104.652 104.652 0 0 1 886.856 104.301 A 19.963 19.963 0 0 1 885.762 100.895 A 26.557 26.557 0 0 1 885.256 97.851 A 41.555 41.555 0 0 1 885.009 93.321 A 43.132 43.132 0 0 1 885.106 90.451 A 34.439 34.439 0 0 1 885.483 87.122 Q 885.777 85.341 886.256 83.801 A 19.4 19.4 0 0 0 889.554 80.164 Q 891.274 77.741 892.656 74.501 Q 895.256 68.401 895.256 58.301 Q 895.256 53.911 894.242 50.688 A 15.743 15.743 0 0 0 893.606 49.001 Q 892.363 46.215 890.951 44.365 A 13.486 13.486 0 0 0 890.006 43.251 Q 888.056 41.201 887.056 40.701 Q 886.174 39.036 885.725 35.982 A 30.705 30.705 0 0 1 885.706 35.851 Q 885.256 32.701 885.306 29.001 A 54.909 54.909 0 0 1 885.684 23.186 A 49.251 49.251 0 0 1 885.856 21.901 A 29.287 29.287 0 0 1 886.301 19.52 Q 886.569 18.367 886.914 17.398 A 13.963 13.963 0 0 1 887.356 16.301 Z M 565.698 87.639 A 16.782 16.782 0 0 0 566.256 89.301 Q 569.056 89.001 573.356 88.651 Q 577.656 88.301 582.606 88.051 Q 587.556 87.801 592.356 87.801 Q 597.556 87.801 602.756 88.051 Q 607.956 88.301 612.406 88.651 A 472.216 472.216 0 0 1 613.326 88.724 Q 617.151 89.032 619.656 89.301 A 15.798 15.798 0 0 0 620.08 88.089 Q 620.338 87.253 620.557 86.266 A 35.321 35.321 0 0 0 620.956 84.151 Q 621.456 81.001 621.506 77.501 Q 621.524 76.188 621.501 74.925 A 67.302 67.302 0 0 0 621.306 70.851 A 31.941 31.941 0 0 0 621.135 69.214 Q 621.004 68.217 620.817 67.363 A 14.254 14.254 0 0 0 620.356 65.701 A 8.155 8.155 0 0 1 620.212 65.638 Q 618.881 65.037 617.506 63.851 Q 616.056 62.601 615.106 60.001 A 13.111 13.111 0 0 1 614.574 58.062 Q 614.363 56.997 614.258 55.74 A 31.881 31.881 0 0 1 614.156 53.101 Q 614.156 48.601 615.106 44.251 Q 616.056 39.901 617.006 35.151 A 46.63 46.63 0 0 0 617.663 30.732 A 59.563 59.563 0 0 0 617.956 24.701 Q 617.956 12.501 612.206 6.251 A 16.798 16.798 0 0 0 606.899 2.421 Q 601.734 0.001 593.956 0.001 A 41.079 41.079 0 0 0 590.379 0.149 Q 587.901 0.366 585.821 0.9 A 17.988 17.988 0 0 0 581.556 2.551 A 19.172 19.172 0 0 0 578.422 4.694 A 13.708 13.708 0 0 0 575.006 8.951 Q 573.056 12.801 573.056 16.901 A 19.516 19.516 0 0 0 573.056 17.054 A 16.418 16.418 0 0 0 575.506 25.751 Q 577.956 29.701 582.006 32.051 Q 586.056 34.401 590.856 34.601 A 23.671 23.671 0 0 1 590.53 34.661 Q 585.011 35.646 580.106 33.801 Q 575.056 31.901 572.156 27.451 A 15.159 15.159 0 0 1 570.264 23.274 Q 569.607 20.95 569.607 18.278 A 22.946 22.946 0 0 1 569.656 16.801 Q 568.656 16.701 567.856 16.551 A 14.319 14.319 0 0 0 567.464 16.483 Q 566.798 16.377 565.956 16.301 A 13.963 13.963 0 0 0 565.514 17.398 Q 565.169 18.367 564.901 19.52 A 29.287 29.287 0 0 0 564.456 21.901 A 49.251 49.251 0 0 0 564.284 23.186 A 54.909 54.909 0 0 0 563.906 29.001 A 60.349 60.349 0 0 0 563.9 29.816 Q 563.9 31.029 563.95 32.181 A 44.461 44.461 0 0 0 564.256 35.851 A 29.308 29.308 0 0 0 564.272 35.982 Q 564.674 39.036 565.556 40.701 A 6.86 6.86 0 0 1 565.648 40.748 Q 566.622 41.253 568.006 42.351 A 6.562 6.562 0 0 1 568.813 43.118 Q 569.786 44.204 570.606 45.951 Q 571.396 47.635 571.643 50.241 A 27.206 27.206 0 0 1 571.756 52.801 A 42.307 42.307 0 0 1 571.755 52.893 Q 571.749 55.787 571.346 57.889 A 13.015 13.015 0 0 1 570.806 59.901 Q 570.241 61.445 569.519 62.53 A 7.068 7.068 0 0 1 568.456 63.801 A 11.094 11.094 0 0 1 567.302 64.742 A 8.532 8.532 0 0 1 565.556 65.701 A 13.515 13.515 0 0 0 565.185 66.968 Q 564.978 67.818 564.831 68.821 A 30.722 30.722 0 0 0 564.606 70.851 A 63.114 63.114 0 0 0 564.514 72.178 Q 564.366 74.73 564.406 77.501 Q 564.456 81.001 564.956 84.151 A 36.996 36.996 0 0 0 565.251 85.787 Q 565.456 86.784 565.698 87.639 Z M 734.298 87.639 A 16.782 16.782 0 0 0 734.856 89.301 Q 737.656 89.001 741.956 88.651 Q 746.256 88.301 751.206 88.051 Q 756.156 87.801 760.956 87.801 Q 766.156 87.801 771.356 88.051 Q 776.556 88.301 781.006 88.651 A 472.216 472.216 0 0 1 781.926 88.724 Q 785.751 89.032 788.256 89.301 A 15.798 15.798 0 0 0 788.68 88.089 Q 788.938 87.253 789.157 86.266 A 35.321 35.321 0 0 0 789.556 84.151 Q 790.056 81.001 790.106 77.501 Q 790.124 76.188 790.101 74.925 A 67.302 67.302 0 0 0 789.906 70.851 A 31.941 31.941 0 0 0 789.735 69.214 Q 789.604 68.217 789.417 67.363 A 14.254 14.254 0 0 0 788.956 65.701 A 8.155 8.155 0 0 1 788.812 65.638 Q 787.481 65.037 786.106 63.851 Q 784.656 62.601 783.706 60.001 A 13.111 13.111 0 0 1 783.174 58.062 Q 782.963 56.997 782.858 55.74 A 31.881 31.881 0 0 1 782.756 53.101 Q 782.756 48.601 783.706 44.251 Q 784.656 39.901 785.606 35.151 A 46.63 46.63 0 0 0 786.263 30.732 A 59.563 59.563 0 0 0 786.556 24.701 Q 786.556 12.501 780.806 6.251 A 16.798 16.798 0 0 0 775.499 2.421 Q 770.334 0.001 762.556 0.001 A 41.079 41.079 0 0 0 758.979 0.149 Q 756.501 0.366 754.421 0.9 A 17.988 17.988 0 0 0 750.156 2.551 A 19.172 19.172 0 0 0 747.022 4.694 A 13.708 13.708 0 0 0 743.606 8.951 Q 741.656 12.801 741.656 16.901 A 19.516 19.516 0 0 0 741.656 17.054 A 16.418 16.418 0 0 0 744.106 25.751 Q 746.556 29.701 750.606 32.051 Q 754.656 34.401 759.456 34.601 A 23.671 23.671 0 0 1 759.13 34.661 Q 753.611 35.646 748.706 33.801 Q 743.656 31.901 740.756 27.451 A 15.159 15.159 0 0 1 738.864 23.274 Q 738.207 20.95 738.207 18.278 A 22.946 22.946 0 0 1 738.256 16.801 Q 737.256 16.701 736.456 16.551 A 14.319 14.319 0 0 0 736.064 16.483 Q 735.398 16.377 734.556 16.301 A 13.963 13.963 0 0 0 734.114 17.398 Q 733.769 18.367 733.501 19.52 A 29.287 29.287 0 0 0 733.056 21.901 A 49.251 49.251 0 0 0 732.884 23.186 A 54.909 54.909 0 0 0 732.506 29.001 A 60.349 60.349 0 0 0 732.5 29.816 Q 732.5 31.029 732.55 32.181 A 44.461 44.461 0 0 0 732.856 35.851 A 29.308 29.308 0 0 0 732.872 35.982 Q 733.274 39.036 734.156 40.701 A 6.86 6.86 0 0 1 734.248 40.748 Q 735.222 41.253 736.606 42.351 A 6.562 6.562 0 0 1 737.413 43.118 Q 738.386 44.204 739.206 45.951 Q 739.996 47.635 740.243 50.241 A 27.206 27.206 0 0 1 740.356 52.801 A 42.307 42.307 0 0 1 740.355 52.893 Q 740.349 55.787 739.946 57.889 A 13.015 13.015 0 0 1 739.406 59.901 Q 738.841 61.445 738.119 62.53 A 7.068 7.068 0 0 1 737.056 63.801 A 11.094 11.094 0 0 1 735.902 64.742 A 8.532 8.532 0 0 1 734.156 65.701 A 13.515 13.515 0 0 0 733.785 66.968 Q 733.578 67.818 733.431 68.821 A 30.722 30.722 0 0 0 733.206 70.851 A 63.114 63.114 0 0 0 733.114 72.178 Q 732.966 74.73 733.006 77.501 Q 733.056 81.001 733.556 84.151 A 36.996 36.996 0 0 0 733.851 85.787 Q 734.056 86.784 734.298 87.639 Z M 431.756 48.101 L 431.756 57.401 L 437.156 57.401 L 437.156 48.101 L 431.756 48.101 Z M 48.956 38.601 L 48.956 45.501 L 55.056 45.501 L 55.056 38.601 L 48.956 38.601 Z M 984.556 55.401 L 984.556 61.701 L 990.056 61.701 L 990.056 55.401 L 984.556 55.401 Z M 148.256 42.401 L 148.256 48.201 L 153.156 48.201 L 153.156 42.401 L 148.256 42.401 Z M 331.756 42.401 L 331.756 48.201 L 336.656 48.201 L 336.656 42.401 L 331.756 42.401 Z" vector-effect="non-scaling-stroke"/></g></svg>